<svg id="visual" viewBox="0 0 900 600" width="900" height="600" xmlns="http://www.w3.org/2000/svg" xmlns:xlink="http://www.w3.org/1999/xlink" version="1.1"><rect x="0" y="0" width="900" height="600" fill="#F7CACA"></rect><path d="M0 109L129 164L257 117L386 177L514 111L643 139L771 208L900 227L900 601L771 601L643 601L514 601L386 601L257 601L129 601L0 601Z" fill="#ff0066"></path><path d="M0 251L129 253L257 255L386 213L514 297L643 228L771 255L900 194L900 601L771 601L643 601L514 601L386 601L257 601L129 601L0 601Z" fill="#ce006e"></path><path d="M0 266L129 290L257 312L386 292L514 340L643 339L771 296L900 344L900 601L771 601L643 601L514 601L386 601L257 601L129 601L0 601Z" fill="#99006c"></path><path d="M0 362L129 400L257 364L386 367L514 349L643 405L771 416L900 385L900 601L771 601L643 601L514 601L386 601L257 601L129 601L0 601Z" fill="#640e60"></path><path d="M0 484L129 411L257 416L386 446L514 408L643 471L771 454L900 441L900 601L771 601L643 601L514 601L386 601L257 601L129 601L0 601Z" fill="#330f4b"></path><path d="M0 502L129 543L257 531L386 536L514 536L643 491L771 508L900 525L900 601L771 601L643 601L514 601L386 601L257 601L129 601L0 601Z" fill="#0b002f"></path></svg>