<svg id="visual" viewBox="0 0 900 600" width="900" height="600" xmlns="http://www.w3.org/2000/svg" xmlns:xlink="http://www.w3.org/1999/xlink" version="1.1"><rect x="0" y="0" width="900" height="600" fill="#001220"></rect><path d="M0 267L11.5 259.2C23 251.3 46 235.7 69 226.5C92 217.3 115 214.7 138.2 223C161.3 231.3 184.7 250.7 207.8 254.5C231 258.3 254 246.7 277 241.7C300 236.7 323 238.3 346 234.5C369 230.7 392 221.3 415.2 223.5C438.3 225.7 461.7 239.3 484.8 243.7C508 248 531 243 554 238.3C577 233.7 600 229.3 623 229.7C646 230 669 235 692.2 234.5C715.3 234 738.7 228 761.8 232.2C785 236.3 808 250.7 831 249C854 247.3 877 229.7 888.5 220.8L900 212L900 0L888.5 0C877 0 854 0 831 0C808 0 785 0 761.8 0C738.7 0 715.3 0 692.2 0C669 0 646 0 623 0C600 0 577 0 554 0C531 0 508 0 484.8 0C461.7 0 438.3 0 415.2 0C392 0 369 0 346 0C323 0 300 0 277 0C254 0 231 0 207.8 0C184.7 0 161.3 0 138.2 0C115 0 92 0 69 0C46 0 23 0 11.5 0L0 0Z" fill="#fa7268"></path><path d="M0 175L11.5 178.5C23 182 46 189 69 193C92 197 115 198 138.2 192.7C161.3 187.3 184.7 175.7 207.8 175.8C231 176 254 188 277 193.5C300 199 323 198 346 191.3C369 184.7 392 172.3 415.2 170.7C438.3 169 461.7 178 484.8 181.5C508 185 531 183 554 179.3C577 175.7 600 170.3 623 167.3C646 164.3 669 163.7 692.2 164.3C715.3 165 738.7 167 761.8 176.2C785 185.3 808 201.7 831 207C854 212.3 877 206.7 888.5 203.8L900 201L900 0L888.5 0C877 0 854 0 831 0C808 0 785 0 761.8 0C738.7 0 715.3 0 692.2 0C669 0 646 0 623 0C600 0 577 0 554 0C531 0 508 0 484.8 0C461.7 0 438.3 0 415.2 0C392 0 369 0 346 0C323 0 300 0 277 0C254 0 231 0 207.8 0C184.7 0 161.3 0 138.2 0C115 0 92 0 69 0C46 0 23 0 11.5 0L0 0Z" fill="#fc6165"></path><path d="M0 174L11.5 166C23 158 46 142 69 131.5C92 121 115 116 138.2 118.7C161.3 121.3 184.7 131.7 207.8 137.3C231 143 254 144 277 147.3C300 150.7 323 156.3 346 157.3C369 158.3 392 154.7 415.2 148.3C438.3 142 461.7 133 484.8 126.5C508 120 531 116 554 118.3C577 120.7 600 129.3 623 135.3C646 141.3 669 144.7 692.2 150C715.3 155.3 738.7 162.7 761.8 159C785 155.3 808 140.7 831 135.3C854 130 877 134 888.5 136L900 138L900 0L888.5 0C877 0 854 0 831 0C808 0 785 0 761.8 0C738.7 0 715.3 0 692.2 0C669 0 646 0 623 0C600 0 577 0 554 0C531 0 508 0 484.8 0C461.7 0 438.3 0 415.2 0C392 0 369 0 346 0C323 0 300 0 277 0C254 0 231 0 207.8 0C184.7 0 161.3 0 138.2 0C115 0 92 0 69 0C46 0 23 0 11.5 0L0 0Z" fill="#fe4e63"></path><path d="M0 70L11.5 74.8C23 79.7 46 89.3 69 92.2C92 95 115 91 138.2 87.8C161.3 84.7 184.7 82.3 207.8 88C231 93.7 254 107.3 277 114.7C300 122 323 123 346 119.7C369 116.3 392 108.7 415.2 102.8C438.3 97 461.7 93 484.8 96.8C508 100.7 531 112.3 554 118.7C577 125 600 126 623 116.5C646 107 669 87 692.2 80.2C715.3 73.3 738.7 79.7 761.8 89.7C785 99.7 808 113.3 831 115.3C854 117.3 877 107.7 888.5 102.8L900 98L900 0L888.5 0C877 0 854 0 831 0C808 0 785 0 761.8 0C738.7 0 715.3 0 692.2 0C669 0 646 0 623 0C600 0 577 0 554 0C531 0 508 0 484.8 0C461.7 0 438.3 0 415.2 0C392 0 369 0 346 0C323 0 300 0 277 0C254 0 231 0 207.8 0C184.7 0 161.3 0 138.2 0C115 0 92 0 69 0C46 0 23 0 11.5 0L0 0Z" fill="#ff3564"></path><path d="M0 36L11.5 35.5C23 35 46 34 69 37.5C92 41 115 49 138.2 47.5C161.3 46 184.7 35 207.8 31.8C231 28.7 254 33.3 277 37.8C300 42.3 323 46.7 346 44C369 41.3 392 31.7 415.2 30.5C438.3 29.3 461.7 36.7 484.8 43.5C508 50.3 531 56.7 554 55.7C577 54.7 600 46.3 623 49C646 51.7 669 65.3 692.2 66.2C715.3 67 738.7 55 761.8 53.8C785 52.7 808 62.3 831 67.2C854 72 877 72 888.5 72L900 72L900 0L888.5 0C877 0 854 0 831 0C808 0 785 0 761.8 0C738.7 0 715.3 0 692.2 0C669 0 646 0 623 0C600 0 577 0 554 0C531 0 508 0 484.8 0C461.7 0 438.3 0 415.2 0C392 0 369 0 346 0C323 0 300 0 277 0C254 0 231 0 207.8 0C184.7 0 161.3 0 138.2 0C115 0 92 0 69 0C46 0 23 0 11.5 0L0 0Z" fill="#ff0066"></path></svg>