<svg id="visual" viewBox="0 0 960 540" width="960" height="540" xmlns="http://www.w3.org/2000/svg" xmlns:xlink="http://www.w3.org/1999/xlink" version="1.1"><rect x="0" y="0" width="960" height="540" fill="#F7CACA"></rect><path d="M0 375L20 383.2C40 391.3 80 407.7 120 411.8C160 416 200 408 240 413.7C280 419.3 320 438.7 360 437.8C400 437 440 416 480 395C520 374 560 353 600 345.2C640 337.3 680 342.7 720 366.5C760 390.3 800 432.7 840 428.8C880 425 920 375 940 350L960 325L960 541L940 541C920 541 880 541 840 541C800 541 760 541 720 541C680 541 640 541 600 541C560 541 520 541 480 541C440 541 400 541 360 541C320 541 280 541 240 541C200 541 160 541 120 541C80 541 40 541 20 541L0 541Z" fill="#FF0066" stroke-linecap="round" stroke-linejoin="miter"></path></svg>